<svg width="120" height="31" viewBox="0 0 120 31" fill="none" xmlns="http://www.w3.org/2000/svg">
<path d="M116.508 4.67756V11.6035H118.886V14.9523H116.508V21.1932C116.508 21.8021 116.656 22.2587 116.954 22.5632C117.251 22.8676 117.697 23.0198 118.291 23.0198C118.588 23.0198 120 23.0198 120 23.0198V26.9775C120 26.9775 117.4 26.9775 117.028 26.9775C115.839 26.9775 114.353 26.7492 113.313 25.7598C112.273 24.7703 111.827 23.4765 111.827 21.6499V14.8762H109.672V11.5274H111.827V4.67756H116.508ZM102.613 27.2819C100.458 27.2819 98.6006 26.5209 97.3377 25.1509C96.0001 23.7809 95.4057 21.9543 95.4057 19.8233V19.2905C95.4057 16.9311 96.0001 15.0284 97.1889 13.5062C98.3778 12.0602 100.087 11.2991 102.316 11.2991C104.322 11.2991 105.957 11.9079 107.072 13.1257C108.26 14.4195 108.78 16.0939 108.78 18.225V20.7365H100.236V20.8127C100.31 21.6499 100.681 22.1827 101.202 22.7154C101.721 23.2482 102.465 23.4765 103.282 23.4765C104.174 23.4765 104.842 23.4004 105.363 23.2482C105.882 23.096 106.625 22.8676 107.369 22.4871L108.483 25.4553C107.814 25.9881 106.997 26.3687 105.957 26.7492C104.917 27.1297 103.728 27.2819 102.613 27.2819ZM102.242 14.9523C101.573 14.9523 101.053 15.1806 100.755 15.7133C100.458 16.2461 100.236 16.9311 100.161 17.6922L100.236 17.7683H104.248V17.3878C104.248 16.5506 104.099 16.0178 103.802 15.6373C103.356 15.1045 102.91 14.9523 102.242 14.9523ZM86.9352 27.2819C84.7804 27.2819 82.9225 26.5209 81.6596 25.1509C80.3966 23.7809 79.7276 21.9543 79.7276 19.8233V19.2905C79.7276 16.9311 80.322 15.0284 81.5108 13.5062C82.6997 12.0602 84.4088 11.2991 86.6377 11.2991C88.6443 11.2991 90.2788 11.9079 91.3935 13.1257C92.5078 14.3434 93.1022 16.0939 93.1022 18.225V20.7365H84.5575V20.8127C84.6316 21.6499 85.0032 22.1827 85.5235 22.7154C86.0433 23.2482 86.7865 23.4765 87.6037 23.4765C88.4956 23.4765 89.1641 23.4004 89.6844 23.2482C90.2047 23.096 90.9473 22.8676 91.6905 22.4871L92.8052 25.4553C92.1362 25.9881 91.3189 26.3687 90.2788 26.7492C89.3128 27.1297 88.124 27.2819 86.9352 27.2819ZM86.6377 14.9523C85.9692 14.9523 85.4489 15.1806 85.152 15.7133C84.8545 16.2461 84.6316 16.9311 84.5575 17.6922L84.6316 17.7683H88.6443V17.3878C88.6443 16.5506 88.4956 16.0178 88.1981 15.6373C87.7524 15.1045 87.3068 14.9523 86.6377 14.9523ZM72.7434 20.4321L74.3779 11.4513H78.6129L75.1951 26.9014H71.2571L68.8053 18.6817H68.7307L66.279 26.9014H62.3409L58.8485 11.5274H63.1581L64.7927 20.5844H64.8668L67.2449 11.5274H70.217L72.7434 20.4321ZM53.0526 22.5632C53.0526 22.1826 52.8298 21.8021 52.3841 21.4976C51.9384 21.1932 51.1953 20.8888 50.0805 20.6605C48.3716 20.2799 47.0341 19.7472 46.1425 19.0622C45.2509 18.3011 44.805 17.3117 44.805 16.0178C44.805 14.6479 45.3995 13.5062 46.4397 12.5168C47.5543 11.5274 49.0405 11.1468 50.8978 11.1468C52.8298 11.1468 54.4643 11.6035 55.579 12.5168C56.7678 13.4301 57.2881 14.5718 57.2135 16.0939V16.17H52.7557C52.7557 15.5612 52.6069 15.1045 52.3095 14.8001C52.0125 14.4956 51.4922 14.3434 50.8978 14.3434C50.378 14.3434 50.0064 14.4956 49.6349 14.8001C49.2633 15.1045 49.1146 15.409 49.1146 15.8656C49.1146 16.3223 49.3374 16.6267 49.709 16.9311C50.0805 17.2355 50.8978 17.4639 52.0125 17.6922C53.7958 18.0728 55.2074 18.6055 56.0247 19.2905C56.9166 20.0516 57.3622 21.041 57.3622 22.411C57.3622 23.7809 56.7678 24.9226 55.579 25.8359C54.3902 26.7492 52.8298 27.2058 50.8978 27.2058C48.8917 27.2058 47.2571 26.6731 46.0682 25.6076C44.8794 24.542 44.3592 23.4004 44.4335 22.0304V21.9543H48.6689C48.6689 22.7154 48.8917 23.2482 49.3374 23.4765C49.7836 23.7048 50.378 24.0093 51.0465 24.0093C51.7151 24.0093 52.1613 23.8571 52.4582 23.6287C52.9039 23.4004 53.0526 23.0198 53.0526 22.5632ZM32.8422 11.4513L32.9908 13.5824C33.5109 12.8213 34.1053 12.2124 34.7741 11.8319C35.5171 11.3752 36.2601 11.1468 37.1518 11.1468C38.5635 11.1468 39.7524 11.6796 40.5697 12.593C41.3871 13.5062 41.8329 15.1045 41.8329 17.2355V26.9014H37.3004V17.3117C37.3004 16.3984 37.1518 15.8656 36.7803 15.485C36.4087 15.1045 35.8886 14.9523 35.2199 14.9523C34.7741 14.9523 34.4025 15.0284 34.031 15.1806C33.6595 15.3329 33.3623 15.5612 33.1394 15.8656V26.9775H28.5325V11.5274H32.8422V11.4513ZM25.709 8.55916H21.0279V4.67756H25.709V8.55916ZM25.709 26.9775H21.0279V11.5274H25.709V26.9775ZM10.774 26.9775V14.8001H8.61923V11.4513H10.774V9.85299C10.774 8.10249 11.2941 6.73254 12.2601 5.74313C13.3003 4.75373 14.8607 4.52537 15.9753 4.52537C16.3468 4.52537 18.9474 4.52537 18.9474 4.52537V8.40692C18.9474 8.40692 17.5356 8.40692 17.2384 8.40692C16.644 8.40692 16.1982 8.55916 15.901 8.86359C15.6038 9.16802 15.4551 9.62468 15.4551 10.2335V11.3752H18.353V14.7239H15.4551V26.8253H10.774V26.9775ZM1.85759 5.97144C1.85759 1.32879 4.23529 0.948242 8.24771 0.948242V4.60149C6.3901 4.60149 5.64706 4.90592 5.64706 6.04756V12.0602C5.64706 13.4301 5.72137 14.8762 4.60681 15.7895C5.72137 16.7028 5.64706 18.0728 5.64706 19.5188V25.5314C5.64706 26.7492 6.3901 26.9775 8.24771 26.9775V30.6307C4.23529 30.6307 1.85759 30.2502 1.85759 25.6076V19.5188C1.85759 18.5294 1.85759 17.4639 0 17.4639V15.8656V14.2673C1.85759 14.2673 1.85759 13.1257 1.85759 12.2124V5.97144Z" fill="white"/>
</svg>
