<svg width="22" height="23" viewBox="0 0 22 23" fill="none" xmlns="http://www.w3.org/2000/svg">
<g clip-path="url(#clip0_1_1019)">
<path d="M15.5567 2.56445H6.66376C4.20804 2.56445 2.21729 4.61527 2.21729 7.14509V16.3064C2.21729 18.8362 4.20804 20.887 6.66376 20.887H15.5567C18.0124 20.887 20.0032 18.8362 20.0032 16.3064V7.14509C20.0032 4.61527 18.0124 2.56445 15.5567 2.56445Z" stroke="white" stroke-width="2" stroke-linecap="round" stroke-linejoin="round"/>
<path d="M14.6672 11.1485C14.7769 11.9109 14.6505 12.6896 14.3059 13.3738C13.9613 14.0579 13.4161 14.6127 12.7478 14.9593C12.0794 15.3058 11.3221 15.4264 10.5834 15.304C9.84466 15.1815 9.16225 14.8222 8.63319 14.2772C8.10412 13.7322 7.75536 13.0292 7.63649 12.2682C7.51762 11.5072 7.63471 10.727 7.97109 10.0385C8.30748 9.34998 8.84604 8.78829 9.51016 8.43329C10.1743 8.0783 10.9302 7.94806 11.6703 8.06113C12.4252 8.17645 13.1241 8.53885 13.6638 9.0948C14.2035 9.65074 14.5552 10.3708 14.6672 11.1485Z" stroke="white" stroke-width="2" stroke-linecap="round" stroke-linejoin="round"/>
<path d="M16.001 6.68701H16.0106" stroke="white" stroke-width="2" stroke-linecap="round" stroke-linejoin="round"/>
</g>
<defs>
<clipPath id="clip0_1_1019">
<rect width="21.3431" height="21.987" fill="white" transform="translate(0.438477 0.732178)"/>
</clipPath>
</defs>
</svg>
