<svg width="22" height="23" viewBox="0 0 22 23" fill="none" xmlns="http://www.w3.org/2000/svg">
<path d="M21.1109 3.48065C20.2593 4.09947 19.3164 4.57277 18.3185 4.88232C17.7829 4.24791 17.0711 3.79826 16.2794 3.59418C15.4876 3.3901 14.6541 3.44143 13.8916 3.74124C13.1291 4.04105 12.4744 4.57487 12.016 5.2705C11.5576 5.96613 11.3177 6.79001 11.3286 7.6307V8.54683C9.76581 8.58857 8.21723 8.23151 6.8208 7.50743C5.42437 6.78336 4.22344 5.71475 3.32498 4.39677C3.32498 4.39677 -0.232202 12.6419 7.77145 16.3064C5.93997 17.5871 3.7582 18.2293 1.54639 18.1387C9.55004 22.7193 19.3323 18.1387 19.3323 7.60322C19.3315 7.34803 19.3076 7.09348 19.2611 6.84283C20.1687 5.92075 20.8092 4.75655 21.1109 3.48065Z" fill="white"/>
</svg>
