<svg width="22" height="23" viewBox="0 0 22 23" fill="none" xmlns="http://www.w3.org/2000/svg">
<path fill-rule="evenodd" clip-rule="evenodd" d="M19.6391 5.45889C19.9421 5.7806 20.1572 6.17897 20.2628 6.61376C20.545 8.22495 20.6819 9.85955 20.6719 11.4967C20.6775 13.1094 20.5406 14.7193 20.2628 16.3064C20.1572 16.7412 19.9421 17.1395 19.6391 17.4612C19.3362 17.783 18.9563 18.0166 18.5376 18.1386C17.008 18.56 10.8897 18.56 10.8897 18.56C10.8897 18.56 4.77134 18.56 3.24175 18.1386C2.83162 18.023 2.45737 17.8004 2.15516 17.4923C1.85294 17.1842 1.63298 16.8009 1.51652 16.3797C1.2344 14.7685 1.09746 13.1339 1.10744 11.4967C1.09965 9.87179 1.23658 8.24955 1.51652 6.6504C1.62216 6.21562 1.8373 5.81725 2.14022 5.49554C2.44314 5.17382 2.82311 4.94016 3.24175 4.81815C4.77134 4.39673 10.8897 4.39673 10.8897 4.39673C10.8897 4.39673 17.008 4.39673 18.5376 4.7815C18.9563 4.90352 19.3362 5.13718 19.6391 5.45889ZM14.0026 11.4967L8.88914 14.4925V8.50101L14.0026 11.4967Z" fill="white"/>
</svg>
